<?xml version="1.0" standalone="no"?>
<!DOCTYPE svg PUBLIC "-//W3C//DTD SVG 20010904//EN"
 "http://www.w3.org/TR/2001/REC-SVG-20010904/DTD/svg10.dtd">
<svg version="1.0" xmlns="http://www.w3.org/2000/svg"
 width="600.000000pt" height="600.000000pt" viewBox="0 0 600.000000 600.000000"
 preserveAspectRatio="xMidYMid meet">

<g transform="translate(0.000000,600.000000) scale(0.100000,-0.100000)"
fill="#000000" stroke="none">
<path d="M0 3640 l0 -2360 24 0 c33 0 76 41 76 72 0 31 34 48 95 48 34 0 47 5
55 20 6 11 16 20 22 20 7 0 22 10 35 22 18 17 23 18 23 6 0 -19 68 -31 88 -15
8 6 23 4 45 -6 28 -14 33 -15 43 -2 13 18 44 20 44 4 0 -8 5 -8 15 1 8 7 15
25 15 40 l0 28 30 -28 c36 -34 69 -44 77 -24 4 11 14 13 34 9 27 -6 29 -4 29
22 0 15 -9 42 -20 58 -32 49 -27 65 23 65 45 0 79 15 62 27 -5 5 -18 23 -28
41 -25 44 -16 82 18 82 43 0 48 31 14 84 -17 25 -33 64 -36 86 l-6 41 40 -7
c35 -5 42 -3 61 20 18 24 19 30 7 59 -17 42 -11 89 15 106 24 16 27 63 5 81
-24 20 -8 79 30 115 46 44 61 74 67 132 3 30 12 59 23 69 15 15 16 30 11 108
-3 50 -7 102 -10 116 -2 14 -5 28 -5 31 -1 9 -50 29 -70 29 -11 0 -42 16 -71
35 -29 19 -54 35 -56 35 -2 0 -26 9 -52 21 -59 27 -100 44 -132 57 -69 28
-126 55 -131 64 -3 5 -15 11 -25 12 -23 3 -26 41 -4 41 8 0 14 8 12 17 -1 8 4
18 13 22 8 3 15 12 15 21 0 9 8 14 23 12 17 -2 22 3 20 21 -2 13 3 22 12 22 7
0 20 8 27 18 7 10 21 21 32 25 14 6 16 10 7 21 -18 21 25 59 50 45 13 -6 26
-6 41 2 13 7 30 15 38 19 8 4 15 11 15 16 0 5 4 15 8 22 5 7 3 12 -4 12 -7 0
-9 3 -5 8 8 7 13 9 45 11 20 1 111 89 111 108 0 6 12 20 26 30 14 11 27 31 28
47 3 27 45 76 64 76 5 0 17 16 28 35 10 19 22 35 26 35 5 0 8 10 8 23 0 13 5
28 11 34 6 6 12 18 13 27 1 10 13 23 27 29 13 7 25 23 27 35 4 23 17 29 27 12
9 -15 25 -2 18 15 -6 18 15 75 28 75 5 0 9 9 9 19 0 10 7 21 15 25 8 3 15 12
15 20 0 7 7 17 16 20 8 3 12 11 8 17 -4 8 -3 9 4 5 7 -4 12 -14 12 -21 0 -9 6
-12 15 -9 11 4 15 21 15 55 0 48 1 49 31 49 29 0 31 2 26 29 -5 22 -2 31 11
36 14 5 14 8 2 15 -11 7 -8 11 13 21 14 6 31 25 37 43 8 23 13 27 19 17 7 -11
10 -9 16 8 4 14 15 21 31 21 14 0 36 11 50 25 14 14 34 25 44 25 11 0 20 4 20
9 0 5 -6 8 -12 7 -7 0 -13 4 -13 9 0 6 9 10 20 10 11 0 29 5 40 12 11 6 33 11
48 11 16 0 34 8 41 18 10 13 28 18 67 20 30 0 81 11 113 23 33 11 67 21 78 21
10 0 18 5 18 10 0 6 12 10 26 10 24 0 25 2 13 17 -12 14 -12 16 0 8 11 -6 13
-3 9 12 -5 19 1 21 81 26 98 7 104 12 131 101 8 27 20 51 26 53 5 2 23 -28 40
-67 16 -38 33 -70 37 -70 5 0 6 4 3 8 -3 5 26 9 65 9 40 1 67 -2 64 -8 -4 -5
1 -9 11 -9 13 0 16 7 11 35 -5 31 -4 34 9 20 8 -8 25 -13 37 -11 12 3 25 5 30
5 4 1 6 7 5 14 -2 8 10 12 37 12 30 0 48 6 70 27 35 33 32 32 79 13 38 -16 42
-12 26 29 -6 17 -17 26 -30 26 -15 0 -20 5 -18 17 5 26 35 28 43 4 9 -29 46
-26 68 4 13 19 14 26 5 32 -12 8 -38 47 -38 58 0 12 19 2 56 -29 34 -29 47
-34 92 -34 36 0 52 4 52 13 0 8 -9 16 -19 20 -11 3 -23 15 -26 26 -4 12 -20
25 -36 31 -16 5 -29 15 -29 20 0 6 -8 17 -17 25 -17 14 -17 14 3 10 12 -2 28
0 37 4 10 6 18 5 22 -1 3 -5 16 -10 29 -10 12 0 27 -5 33 -11 19 -19 83 -20
90 -2 4 9 -1 21 -10 28 -17 13 -23 34 -9 36 8 2 94 9 140 12 23 1 32 7 32 19
0 12 5 16 18 11 14 -5 13 -3 -3 10 -11 9 -25 17 -31 17 -11 0 -24 22 -24 41 0
16 29 10 40 -8 10 -17 11 -17 8 1 -2 10 -20 28 -41 39 -43 22 -58 45 -51 74 4
15 12 18 35 15 16 -2 30 -9 30 -16 1 -6 4 3 8 19 5 27 10 30 44 31 46 1 58 11
34 28 -24 18 -21 35 9 46 38 15 46 12 39 -10 -6 -18 -3 -20 27 -18 19 1 39 -1
45 -5 7 -4 19 3 28 15 11 14 19 18 22 11 3 -8 11 -8 31 3 34 18 42 18 42 -1 0
-17 36 -39 51 -30 7 5 6 12 -2 21 -20 25 4 64 40 64 19 0 35 8 44 20 14 21 15
21 21 -5 5 -20 13 -25 36 -25 25 0 30 -4 36 -36 9 -46 39 -44 39 4 0 20 5 32
13 32 7 0 11 -4 7 -9 -10 -17 17 -24 32 -8 14 13 13 16 -6 22 -15 4 -21 15
-21 36 0 33 -6 36 -32 12 -17 -15 -19 -15 -32 2 -8 11 -21 16 -33 13 -12 -3
-27 -2 -34 3 -9 6 -10 9 -2 9 6 0 11 9 10 20 -1 13 -8 20 -21 20 -20 0 -20 0
0 -15 19 -14 19 -14 -1 -16 -32 -2 -89 2 -98 8 -12 7 20 33 42 33 11 0 23 5
26 10 3 6 -1 10 -9 10 -21 0 -20 16 0 24 23 9 9 20 -26 22 -20 1 -31 -4 -35
-16 -4 -11 -17 -17 -40 -18 -43 -2 -55 15 -18 24 25 7 25 8 8 15 -11 4 -33 8
-48 8 -15 1 -30 8 -33 16 -4 8 -10 13 -14 10 -5 -3 -8 7 -7 22 2 27 1 28 -51
28 -43 0 -52 3 -52 18 0 9 -4 17 -10 17 -5 0 -10 -11 -10 -25 0 -18 -7 -26
-24 -31 -40 -10 -50 5 -21 32 30 28 24 48 -11 40 -17 -5 -24 -2 -24 9 0 8 -6
15 -12 16 -138 7 -139 8 -164 36 -13 15 -24 32 -24 37 0 6 -6 1 -14 -10 -14
-18 -15 -18 -21 -2 -4 10 -25 23 -46 28 -34 9 -38 13 -29 29 7 14 6 22 -6 32
-8 7 -14 8 -12 3 2 -5 0 -10 -4 -11 -19 -7 -29 -1 -40 22 l-11 25 -1489 0
-1488 0 0 -2360z m2030 2160 c-8 -90 -2 -100 73 -124 29 -9 59 -21 67 -26 13
-8 13 -9 0 -14 -8 -2 -46 -14 -83 -26 -53 -17 -70 -28 -78 -47 -5 -14 -9 -30
-8 -37 4 -32 -2 -106 -9 -106 -4 0 -13 13 -20 28 -6 16 -21 38 -32 50 -11 12
-20 25 -20 30 0 27 -29 33 -92 21 -35 -6 -67 -16 -72 -20 -14 -13 -26 -11 -26
4 0 8 11 24 25 37 13 12 36 40 50 60 l26 38 -22 38 c-12 22 -30 51 -41 67 -11
15 -18 31 -16 36 2 5 34 -4 71 -20 38 -16 75 -29 82 -29 7 0 37 29 66 65 29
36 56 62 59 58 4 -5 4 -42 0 -83z m1490 -120 c0 -17 -3 -19 -19 -8 -21 13 -19
28 5 28 8 0 14 -9 14 -20z m-2640 -47 c0 -10 6 -30 14 -44 7 -15 28 -76 45
-135 18 -60 38 -125 45 -144 8 -19 20 -50 26 -67 l12 -33 237 -2 236 -3 -50
-37 c-27 -20 -66 -49 -85 -63 -19 -14 -75 -55 -125 -90 -135 -96 -127 -83
-104 -152 10 -32 41 -123 69 -203 28 -80 53 -155 57 -167 7 -31 -17 -30 -53 1
-32 28 -124 98 -179 136 -20 14 -53 39 -73 57 -62 54 -83 59 -128 30 -22 -13
-51 -35 -66 -48 -14 -13 -65 -51 -113 -84 -48 -33 -95 -68 -105 -77 -10 -9
-28 -22 -40 -28 -25 -13 -27 -26 16 120 14 47 32 99 39 115 24 52 67 204 60
215 -4 6 -30 26 -58 45 -29 19 -79 55 -112 80 -33 25 -85 63 -115 84 -105 74
-111 71 141 71 123 0 229 4 234 8 16 11 32 49 65 157 73 233 110 319 110 258z
m2777 -54 c19 -14 21 -18 7 -23 -38 -15 -62 -7 -66 23 -4 24 -1 27 16 23 12
-3 31 -13 43 -23z m36 -143 c4 -10 0 -12 -14 -9 -10 3 -16 9 -13 14 8 13 21
11 27 -5z m-1339 -72 l52 -57 49 22 c27 12 52 25 55 30 9 13 60 23 60 11 0
-13 -30 -73 -39 -80 -4 -3 -13 -20 -21 -38 -13 -33 -13 -33 46 -93 69 -69 65
-88 -12 -64 -27 8 -63 15 -80 15 -28 0 -33 -6 -65 -70 -19 -38 -39 -69 -45
-70 -13 0 -24 44 -24 94 0 69 -5 73 -96 86 -46 7 -84 16 -84 22 0 5 34 25 76
45 l75 36 -6 66 c-4 36 -9 74 -11 84 -10 32 17 17 70 -39z m930 -153 c6 -9
-25 -22 -61 -25 -16 -1 -23 4 -23 16 0 14 8 18 39 18 22 0 42 -4 45 -9z m-387
-247 c-3 -3 -12 -4 -19 -1 -8 3 -5 6 6 6 11 1 17 -2 13 -5z m-227 -209 c0 -8
-4 -15 -10 -15 -5 0 -10 7 -10 15 0 8 5 15 10 15 6 0 10 -7 10 -15z m-1875
-2275 c4 -6 10 -8 15 -5 4 3 7 -3 5 -12 -2 -10 -4 -24 -4 -30 -1 -7 -10 -13
-22 -13 -11 0 -18 3 -16 8 3 4 1 16 -4 27 -6 17 -8 17 -8 3 -1 -10 -5 -18 -10
-18 -14 0 -20 38 -7 44 20 8 45 6 51 -4z m-13 -164 c22 -32 -10 -69 -50 -60
-32 8 -28 5 -36 30 -9 30 16 53 51 46 15 -3 31 -10 35 -16z m-68 -228 c8 -40
-14 -61 -53 -52 -34 8 -49 28 -43 59 4 22 9 25 47 25 40 0 43 -2 49 -32z m-40
-137 c28 -31 11 -51 -45 -51 -47 0 -49 1 -49 28 0 16 3 32 7 35 14 14 70 6 87
-12z m-63 -141 c11 -6 19 -21 19 -35 0 -21 -5 -25 -28 -25 -32 0 -75 27 -66
41 5 8 36 25 52 28 2 1 12 -4 23 -9z m-59 -243 c32 -25 26 -41 -17 -43 -73 -3
-102 20 -52 44 30 14 49 14 69 -1z m-462 -27 c0 -5 -4 -10 -9 -10 -6 0 -13 5
-16 10 -3 6 1 10 9 10 9 0 16 -4 16 -10z m190 6 c0 -3 -4 -8 -10 -11 -5 -3
-10 -1 -10 4 0 6 5 11 10 11 6 0 10 -2 10 -4z"/>
<path d="M3585 5770 c-3 -5 -1 -10 4 -10 6 0 11 5 11 10 0 6 -2 10 -4 10 -3 0
-8 -4 -11 -10z"/>
<path d="M3581 5714 c0 -11 3 -14 6 -6 3 7 2 16 -1 19 -3 4 -6 -2 -5 -13z"/>
<path d="M3726 5691 c-4 -5 -2 -12 3 -15 5 -4 12 -2 15 3 4 5 2 12 -3 15 -5 4
-12 2 -15 -3z"/>
<path d="M4114 5509 c-3 -6 -1 -16 5 -22 8 -8 11 -5 11 11 0 24 -5 28 -16 11z"/>
<path d="M4053 5493 c-3 -8 -3 -17 1 -20 6 -6 36 15 36 27 0 13 -32 7 -37 -7z"/>
<path d="M4200 5480 c0 -5 5 -10 10 -10 6 0 10 5 10 10 0 6 -4 10 -10 10 -5 0
-10 -4 -10 -10z"/>
<path d="M4640 5415 c-24 -49 -29 -51 -99 -33 -16 4 -49 -48 -50 -78 -1 -12
-8 -25 -16 -28 -12 -4 -14 -10 -5 -25 5 -11 10 -33 10 -49 0 -16 7 -35 15 -42
9 -8 13 -21 9 -36 -4 -17 -1 -26 10 -30 9 -3 16 -15 16 -26 0 -29 45 -68 78
-68 27 0 29 -2 27 -37 -3 -66 -13 -83 -45 -77 -16 4 -41 -1 -61 -12 -37 -19
-68 -26 -112 -27 -16 0 -40 -10 -55 -24 -14 -13 -33 -23 -41 -21 -22 3 -88
-31 -95 -49 -3 -8 -3 -20 1 -26 4 -6 0 -8 -10 -4 -14 5 -15 3 -4 -13 8 -14 23
-20 50 -20 30 0 38 -3 35 -16 -4 -23 -116 -55 -247 -71 -33 -4 -42 -2 -39 8 2
7 14 16 26 19 19 5 19 7 5 25 -11 14 -17 16 -20 8 -3 -7 -17 -13 -32 -13 -15
0 -36 -7 -47 -15 -10 -8 -33 -15 -50 -15 -35 0 -48 -12 -57 -51 -4 -14 -19
-32 -34 -40 -16 -8 -31 -18 -35 -24 -4 -6 -12 -4 -20 6 -14 18 -88 49 -116 49
-9 0 -27 18 -39 39 l-23 39 -82 -3 c-46 -2 -99 1 -118 7 -25 8 -35 8 -38 -1
-2 -6 -14 -11 -26 -11 -27 0 -86 -50 -86 -73 0 -10 13 -17 43 -22 23 -4 56
-14 74 -22 22 -10 37 -12 49 -5 12 7 25 5 45 -7 26 -15 29 -14 58 7 38 27 51
28 104 0 25 -13 57 -20 80 -19 43 2 48 -14 21 -67 -9 -19 -13 -41 -9 -53 5
-16 3 -20 -6 -17 -8 3 -14 11 -15 19 -2 46 -15 59 -59 59 -45 0 -104 -35 -77
-46 6 -3 12 -11 12 -18 0 -17 119 -136 137 -136 3 0 14 -7 24 -15 9 -9 40 -18
69 -20 61 -4 75 -14 67 -47 -4 -16 -19 -28 -44 -38 -42 -15 -71 -15 -150 2
-46 10 -55 9 -71 -5 -10 -10 -25 -17 -34 -17 -24 0 -48 -34 -48 -68 0 -25 -6
-35 -32 -48 -18 -9 -38 -23 -46 -30 -7 -8 -27 -14 -43 -14 -27 0 -29 3 -24 28
3 15 2 21 -1 13 -8 -16 -55 -60 -66 -61 -13 0 -1 31 20 50 12 11 25 33 29 48
3 15 13 32 22 38 13 10 14 16 2 37 -7 14 -11 29 -7 35 6 11 -84 25 -106 17 -8
-3 -20 0 -26 8 -9 10 6 20 76 50 48 20 99 37 114 37 50 0 50 72 0 85 -15 3
-39 18 -53 32 -18 16 -35 23 -50 20 l-24 -4 23 -8 c39 -13 23 -40 -23 -38 -21
2 -41 7 -44 12 -7 10 -113 48 -153 55 -22 4 -28 1 -28 -14 0 -10 5 -22 10 -25
22 -14 9 -27 -21 -21 -40 8 -112 -27 -128 -61 -14 -30 -14 -69 0 -94 7 -15 7
-24 -1 -34 -6 -8 -7 -16 -2 -19 5 -3 15 -26 21 -51 6 -25 18 -48 26 -51 18 -7
20 -60 3 -67 -7 -3 0 -10 16 -16 28 -11 28 -12 10 -32 -17 -19 -17 -21 0 -49
13 -23 14 -30 4 -30 -8 0 -38 -16 -68 -35 -46 -29 -64 -35 -113 -35 -61 0 -73
-14 -30 -35 12 -6 28 -17 38 -25 11 -9 40 -13 91 -12 58 1 74 -2 74 -13 0 -10
9 -12 34 -8 18 3 36 1 40 -5 3 -6 9 -38 12 -71 7 -58 8 -61 40 -73 30 -11 46
-28 27 -28 -5 0 -19 -16 -32 -35 -13 -19 -32 -35 -43 -35 -10 0 -21 -7 -24
-15 -4 -8 -13 -15 -21 -15 -22 0 -10 -25 14 -28 26 -4 76 -100 71 -138 -2 -22
-10 -30 -34 -36 -24 -6 -33 -15 -37 -38 -4 -18 -13 -30 -22 -30 -10 0 -15 -7
-13 -17 1 -10 -1 -24 -5 -30 -12 -19 1 -33 28 -33 21 0 48 -19 28 -20 -4 -1
-27 -5 -50 -9 -44 -9 -62 1 -76 42 -4 9 -16 17 -28 17 -15 0 -19 -4 -15 -16 3
-9 6 -18 6 -20 0 -2 9 -4 19 -4 21 0 37 -32 26 -50 -11 -17 15 -40 45 -40 15
0 34 -8 43 -18 15 -17 13 -19 -33 -41 -49 -23 -70 -22 -70 5 0 21 -16 17 -33
-10 -12 -17 -13 -32 -7 -62 5 -21 8 -39 7 -41 -2 -1 -18 -13 -37 -26 -28 -18
-42 -22 -65 -15 -35 9 -54 -4 -35 -27 7 -8 8 -15 2 -15 -5 0 -15 7 -22 15 -7
8 -16 13 -20 10 -5 -3 -11 -1 -15 5 -16 26 -35 8 -41 -40 -8 -57 -16 -65 -61
-61 -28 2 -35 -3 -58 -38 -14 -23 -35 -47 -46 -53 -25 -16 -50 -73 -42 -94 7
-19 -15 -36 -39 -28 -41 12 -99 -59 -63 -78 8 -5 15 -15 15 -23 0 -15 -65 -85
-79 -85 -11 0 -21 -38 -14 -56 3 -9 21 -14 49 -14 24 0 54 -5 68 -11 l24 -11
-27 -27 c-16 -15 -48 -32 -71 -37 -34 -7 -47 -16 -62 -43 -25 -44 -17 -61 26
-61 37 0 55 -15 38 -32 -6 -6 -8 -17 -5 -26 4 -8 0 -20 -9 -26 -21 -15 -39
-52 -33 -68 4 -12 -55 -58 -74 -58 -5 0 -14 -7 -21 -15 -7 -8 -29 -19 -50 -25
-34 -9 -90 -50 -90 -66 0 -20 35 -31 64 -21 30 10 104 61 118 81 4 6 10 7 14
3 4 -3 1 -13 -6 -22 -9 -11 -9 -22 -1 -46 20 -57 22 -56 -146 -132 -26 -12
-68 -91 -58 -107 5 -8 35 -9 92 -6 75 5 90 4 119 -15 39 -24 43 -48 13 -75
-12 -10 -25 -28 -29 -40 -6 -15 -21 -23 -52 -28 -56 -9 -148 -53 -148 -72 0
-8 -4 -14 -9 -14 -4 0 -22 -12 -38 -27 -56 -51 -112 -93 -123 -93 -15 0 -92
-51 -107 -71 -7 -9 -27 -24 -45 -33 -18 -9 -41 -22 -50 -28 -22 -16 -32 -5
-20 19 13 23 -13 43 -53 43 -25 0 -125 -87 -125 -109 0 -7 -30 -11 -90 -11
-53 0 -90 -4 -90 -10 0 -5 -6 -10 -12 -10 -7 0 -24 -6 -38 -13 -14 -7 -51 -21
-83 -31 -54 -17 -59 -17 -70 -2 -11 16 -16 16 -66 -1 -35 -11 -56 -24 -59 -35
-2 -11 -26 -30 -52 -43 -65 -33 -82 -62 -75 -128 9 -84 26 -125 59 -150 36
-26 82 -49 111 -54 22 -3 67 -24 75 -35 3 -3 23 -7 45 -9 22 -1 45 -6 51 -10
5 -5 89 -11 185 -14 288 -8 572 -25 605 -36 18 -5 36 -9 40 -8 25 4 34 -4 40
-38 4 -21 9 -42 12 -47 9 -15 22 19 22 58 0 22 4 53 9 70 5 17 15 50 21 73 16
62 45 86 96 78 34 -5 45 -2 68 20 22 20 37 25 82 25 29 0 54 -4 54 -10 0 -5
19 -10 41 -10 45 0 103 -27 158 -73 26 -23 40 -28 65 -23 39 7 77 -23 100 -77
12 -29 22 -39 46 -44 27 -5 31 -9 25 -30 -5 -20 4 -33 48 -76 43 -42 55 -60
61 -94 l6 -43 1540 0 1540 0 0 958 0 959 -22 11 c-13 6 -36 16 -52 22 -27 10
-28 12 -13 27 15 15 15 17 -1 29 -23 17 -12 25 43 31 l45 6 0 142 c0 155 -9
190 -56 212 -26 12 -117 5 -108 -8 3 -5 -4 -9 -15 -9 -11 0 -23 5 -26 11 -4 5
-21 9 -38 7 -28 -3 -32 0 -35 24 -2 19 3 30 20 39 l23 13 -30 7 c-16 4 -55 7
-85 8 l-56 1 -37 55 -37 55 36 0 c27 0 41 -7 56 -25 16 -20 48 -35 48 -22 0
13 -43 81 -68 108 -31 33 -41 59 -23 59 5 0 12 -7 15 -16 9 -24 24 -7 18 22
-3 16 1 30 9 35 9 6 10 12 4 17 -22 16 -65 74 -65 88 0 8 10 19 23 24 12 5 17
9 10 9 -18 1 -93 107 -93 131 0 25 2 25 50 -5 40 -25 84 -33 94 -16 3 5 -1 15
-10 22 -24 20 -46 68 -39 89 3 10 -6 47 -20 81 -26 65 -31 89 -17 89 5 0 23
13 41 29 22 20 43 29 66 29 19 0 38 3 44 7 15 9 14 45 -1 45 -7 0 1 10 19 21
18 11 35 28 38 38 3 10 22 27 43 39 75 44 111 84 121 137 6 32 17 55 30 64 12
7 21 20 21 28 0 7 7 16 15 19 13 5 15 35 15 180 l0 174 -107 -5 c-70 -3 -114
-10 -129 -20 -13 -8 -35 -15 -49 -15 -30 0 -190 -37 -220 -50 -30 -14 -125 -8
-125 8 0 7 -4 11 -8 8 -11 -7 -38 42 -29 51 4 3 1 16 -6 27 -22 33 -30 76 -29
143 1 53 -2 63 -18 68 -11 4 -20 11 -20 16 0 5 -6 9 -14 9 -19 0 -74 64 -82
95 -7 30 -32 45 -72 45 -26 0 -29 3 -25 24 5 22 1 25 -38 31 l-44 7 3 46 c3
53 -12 76 -68 104 -44 23 -126 38 -163 31 -21 -4 -32 0 -48 21 -14 18 -30 26
-50 26 -36 0 -46 20 -29 59 12 30 45 47 56 29 4 -6 10 -5 15 3 4 7 4 18 -2 25
-6 7 -3 22 7 42 24 49 20 380 -5 405 -6 6 -11 29 -11 52 0 23 -6 49 -13 60
-13 16 -16 14 -37 -30z m5 -55 c3 -5 1 -10 -4 -10 -6 0 -11 5 -11 10 0 6 2 10
4 10 3 0 8 -4 11 -10z m-104 -155 c-1 -15 -24 -12 -29 3 -3 9 2 13 12 10 10
-1 17 -7 17 -13z m-178 -512 c-7 -2 -19 -2 -25 0 -7 3 -2 5 12 5 14 0 19 -2
13 -5z m37 -128 c0 -17 -9 -26 -31 -34 -58 -20 -64 -9 -23 45 21 27 30 32 40
23 8 -6 14 -22 14 -34z m-240 15 c0 -5 -5 -10 -11 -10 -5 0 -7 5 -4 10 3 6 8
10 11 10 2 0 4 -4 4 -10z m-297 -97 c-7 -2 -21 -2 -30 0 -10 3 -4 5 12 5 17 0
24 -2 18 -5z m320 -110 c-13 -35 -46 -75 -72 -85 l-26 -10 23 -15 c32 -22 27
-33 -15 -33 -28 0 -42 -6 -58 -26 -19 -24 -29 -27 -86 -28 -64 -1 -95 15 -47
24 15 3 38 15 52 28 15 12 39 22 56 22 18 0 33 6 36 15 4 8 11 15 18 15 6 0
22 16 36 35 49 68 55 75 72 75 12 0 16 -5 11 -17z m-1136 -560 c-3 -3 -11 -2
-17 2 -9 6 -9 10 1 16 14 8 27 -7 16 -18z m368 -203 c0 -9 -8 -14 -20 -13
-124 12 -157 33 -47 30 52 -2 67 -5 67 -17z m-1225 -2145 c0 -8 -2 -15 -4 -15
-2 0 -6 7 -10 15 -3 8 -1 15 4 15 6 0 10 -7 10 -15z m-170 -400 c0 -7 -59 -65
-65 -65 -12 0 -3 20 18 44 20 23 47 35 47 21z m-460 -220 c-7 -8 -16 -15 -21
-15 -5 0 -6 7 -3 15 4 8 13 15 21 15 13 0 13 -3 3 -15z m-40 -22 c0 -5 -5 -15
-10 -23 -8 -12 -10 -11 -10 8 0 12 5 22 10 22 6 0 10 -3 10 -7z m503 -480 c-7
-2 -21 -2 -30 0 -10 3 -4 5 12 5 17 0 24 -2 18 -5z"/>
<path d="M3655 5360 c-3 -5 -1 -10 4 -10 6 0 11 5 11 10 0 6 -2 10 -4 10 -3 0
-8 -4 -11 -10z"/>
<path d="M4450 5325 c0 -14 4 -25 9 -25 12 0 19 21 13 38 -8 21 -22 13 -22
-13z"/>
<path d="M3480 5311 c0 -6 5 -13 10 -16 6 -3 10 1 10 9 0 9 -4 16 -10 16 -5 0
-10 -4 -10 -9z"/>
<path d="M3728 5293 c7 -3 16 -2 19 1 4 3 -2 6 -13 5 -11 0 -14 -3 -6 -6z"/>
<path d="M3345 5250 c3 -5 8 -10 11 -10 2 0 4 5 4 10 0 6 -5 10 -11 10 -5 0
-7 -4 -4 -10z"/>
<path d="M3376 5244 c-12 -31 -6 -44 19 -44 21 0 25 5 25 30 0 23 -5 30 -19
30 -10 0 -22 -7 -25 -16z"/>
<path d="M4750 5224 c0 -8 5 -12 10 -9 6 4 8 11 5 16 -9 14 -15 11 -15 -7z"/>
<path d="M4740 5065 c0 -8 7 -15 15 -15 8 0 15 7 15 15 0 8 -7 15 -15 15 -8 0
-15 -7 -15 -15z"/>
<path d="M3310 5060 c0 -5 5 -10 10 -10 6 0 10 5 10 10 0 6 -4 10 -10 10 -5 0
-10 -4 -10 -10z"/>
<path d="M3366 5031 c-8 -12 9 -57 24 -66 7 -4 18 -23 26 -41 16 -39 29 -43
44 -15 16 32 13 43 -10 31 -17 -9 -20 -6 -28 22 -5 18 -14 32 -21 31 -6 -2
-11 8 -11 22 0 25 -14 34 -24 16z"/>
<path d="M3280 5010 c-12 -7 -12 -12 -2 -22 9 -9 15 -9 24 0 16 16 -2 34 -22
22z"/>
<path d="M3487 5003 c-13 -12 -7 -33 8 -33 8 0 15 9 15 20 0 20 -11 26 -23 13z"/>
<path d="M5887 4902 c-14 -16 -14 -18 8 -28 13 -7 26 -9 28 -5 2 3 2 0 0 -7
-1 -8 -3 -20 -3 -28 0 -8 -7 -14 -15 -14 -8 0 -15 -4 -15 -10 0 -5 7 -10 15
-10 8 0 15 -3 15 -8 0 -4 18 -6 40 -4 l41 4 -2 52 c-1 28 -6 57 -12 64 -14 18
-81 15 -100 -6z"/>
<path d="M3010 4845 c0 -22 45 -48 70 -40 21 7 21 7 -5 31 -29 27 -65 32 -65
9z"/>
<path d="M3150 4840 c0 -5 6 -10 14 -10 8 0 18 5 21 10 3 6 -3 10 -14 10 -12
0 -21 -4 -21 -10z"/>
<path d="M4102 4668 c6 -18 28 -21 28 -4 0 9 -7 16 -16 16 -9 0 -14 -5 -12
-12z"/>
<path d="M2950 4324 c0 -8 5 -12 10 -9 6 3 10 10 10 16 0 5 -4 9 -10 9 -5 0
-10 -7 -10 -16z"/>
<path d="M3495 4280 c3 -5 21 -10 38 -9 27 0 29 2 12 9 -28 12 -57 12 -50 0z"/>
<path d="M3670 4160 c0 -6 7 -10 15 -10 8 0 15 2 15 4 0 2 -7 6 -15 10 -8 3
-15 1 -15 -4z"/>
<path d="M5795 4120 c3 -5 10 -10 16 -10 5 0 9 5 9 10 0 6 -7 10 -16 10 -8 0
-12 -4 -9 -10z"/>
<path d="M5416 4065 c-4 -12 4 -15 39 -15 35 0 43 3 39 15 -4 9 -19 15 -39 15
-20 0 -35 -6 -39 -15z"/>
<path d="M800 3370 c0 -5 7 -10 16 -10 8 0 12 5 9 10 -3 6 -10 10 -16 10 -5 0
-9 -4 -9 -10z"/>
<path d="M2740 3370 c0 -5 5 -10 10 -10 6 0 10 5 10 10 0 6 -4 10 -10 10 -5 0
-10 -4 -10 -10z"/>
<path d="M2770 3342 c0 -24 75 -92 101 -92 20 0 20 1 -5 33 -41 51 -56 65 -77
70 -13 4 -19 0 -19 -11z"/>
<path d="M2300 3235 c-11 -21 -11 -29 0 -50 21 -39 114 -135 131 -135 8 0 20
-5 27 -12 14 -14 82 -12 96 2 13 13 29 13 21 0 -3 -6 5 -10 19 -10 14 0 28 5
31 10 3 6 2 10 -3 10 -4 0 -23 13 -41 29 -34 30 -68 41 -132 41 -40 0 -61 17
-38 30 14 9 11 14 -45 77 -35 40 -48 41 -66 8z"/>
<path d="M2696 3034 c-9 -23 -8 -24 14 -24 13 0 20 7 20 20 0 24 -25 27 -34 4z"/>
<path d="M599 1284 c-14 -17 -66 -18 -106 -3 -15 6 -48 7 -74 4 -40 -6 -46 -9
-42 -26 3 -10 0 -19 -6 -19 -6 0 -11 5 -11 10 0 6 -7 10 -16 10 -12 0 -15 -7
-12 -24 3 -16 0 -27 -9 -30 -23 -9 -58 -7 -69 4 -17 17 -97 14 -132 -4 -18 -9
-37 -27 -42 -40 -9 -24 -35 -40 -50 -31 -5 3 -6 35 -3 70 5 56 4 65 -11 65
-14 0 -16 -13 -16 -84 0 -58 4 -86 13 -89 9 -4 9 -6 0 -6 -9 -1 -13 -18 -13
-50 l0 -48 52 -7 c59 -8 49 -26 -14 -26 l-38 0 0 -69 0 -69 44 -3 c24 -2 42
-1 39 4 -2 4 50 7 116 7 109 0 121 -2 131 -19 6 -13 7 -22 0 -26 -12 -7 -78 4
-85 15 -3 5 -20 4 -38 -1 -17 -5 -71 -9 -119 -9 l-88 0 0 -119 0 -119 31 -6
c17 -3 42 -6 55 -6 13 0 24 -4 24 -9 0 -13 -27 -21 -71 -21 l-39 0 0 -79 c0
-79 0 -80 27 -83 l28 -4 -27 -12 -28 -12 0 -160 0 -160 205 0 c176 0 205 2
205 15 0 8 -10 25 -21 36 -27 27 -44 86 -30 103 6 7 36 19 66 26 60 14 66 23
34 42 -21 13 -89 138 -89 164 0 20 69 42 183 59 31 5 37 10 37 30 0 17 -6 25
-18 25 -26 0 -42 20 -42 52 0 27 1 28 56 28 33 0 74 8 102 20 38 17 47 25 49
47 1 17 -6 33 -17 40 -12 8 -16 20 -13 34 4 12 0 25 -8 30 -11 6 -11 11 -1 21
6 6 12 22 12 34 0 16 7 24 23 26 16 2 22 10 22 28 0 14 4 31 8 38 14 20 -2 32
-43 32 -36 0 -39 2 -42 32 -2 28 -8 34 -33 38 -19 4 -29 11 -28 21 2 12 -5 14
-32 11 -27 -3 -35 -1 -35 12 0 8 -13 25 -30 38 -16 12 -30 30 -30 40 0 12 -8
18 -24 18 -14 0 -28 5 -31 10 -10 16 26 24 47 11 15 -9 20 -9 24 4 4 9 19 15
43 15 20 0 47 9 61 20 14 11 31 20 38 20 12 0 37 49 29 57 -3 2 -18 8 -35 12
-23 7 -34 6 -43 -5z m-331 -763 c3 -17 -2 -21 -22 -21 -42 0 -76 17 -69 36 16
41 84 31 91 -15z m-48 -177 c21 -25 -14 -47 -60 -39 -58 11 -66 39 -18 60 34
14 54 9 78 -21z m-78 -256 c4 -7 8 -23 8 -35 0 -42 -88 -42 -114 -1 -17 28 20
61 63 54 19 -3 38 -11 43 -18z"/>
<path d="M1144 1176 c-3 -8 -26 -22 -52 -32 -39 -14 -43 -19 -27 -25 25 -9
156 -11 208 -3 36 7 37 7 20 25 -10 10 -24 25 -31 34 -17 20 -110 21 -118 1z"/>
<path d="M708 1003 c12 -2 32 -2 45 0 12 2 2 4 -23 4 -25 0 -35 -2 -22 -4z"/>
<path d="M1100 861 c-56 -27 -60 -31 -53 -47 4 -12 16 -14 46 -11 21 3 42 9
46 13 3 5 15 14 26 20 11 6 21 19 23 28 5 22 -42 21 -88 -3z"/>
</g>
</svg>
