<?xml version="1.0" standalone="no"?>
<!DOCTYPE svg PUBLIC "-//W3C//DTD SVG 20010904//EN"
 "http://www.w3.org/TR/2001/REC-SVG-20010904/DTD/svg10.dtd">
<svg version="1.0" xmlns="http://www.w3.org/2000/svg"
 width="600.000000pt" height="600.000000pt" viewBox="0 0 600.000000 600.000000"
 preserveAspectRatio="xMidYMid meet">
<metadata>
Created by potrace 1.14, written by Peter Selinger 2001-2017
</metadata>
<g transform="translate(0.000000,600.000000) scale(0.100000,-0.100000)"
fill="#000000" stroke="none">
<path d="M0 3640 l0 -2360 24 0 c34 0 80 44 73 70 -7 27 37 50 98 50 38 0 47
4 56 24 7 14 17 22 25 19 7 -2 19 5 26 16 15 24 38 28 38 6 0 -18 12 -19 29
-3 10 11 14 9 23 -5 9 -18 10 -18 23 0 13 17 14 17 32 0 21 -19 63 -23 63 -6
0 6 14 9 32 7 31 -3 33 -1 38 32 4 28 7 32 15 19 6 -10 27 -27 47 -39 l37 -21
11 21 c9 16 15 19 23 11 36 -36 50 14 17 64 -11 17 -20 42 -20 57 0 25 3 27
30 22 16 -4 41 -3 55 0 l25 6 -25 40 c-38 60 -32 91 19 104 26 6 28 10 22 39
-3 18 -13 37 -21 43 -19 14 -35 58 -35 95 0 29 2 30 34 24 46 -9 82 23 71 63
-15 56 -10 104 13 122 27 22 28 50 3 81 -25 31 -13 80 28 115 40 34 57 67 66
129 4 28 16 61 26 74 22 28 24 83 8 180 -12 74 -21 84 -93 105 -28 9 -62 25
-76 38 -24 22 -123 68 -147 68 -7 0 -13 4 -13 9 0 4 -26 17 -57 29 -110 39
-131 48 -144 58 -8 6 -26 14 -41 18 -29 7 -39 40 -15 49 10 4 10 6 0 6 -7 1
-13 6 -13 12 0 5 5 7 10 4 13 -8 42 14 35 25 -3 4 2 10 10 14 8 3 15 17 15 31
0 16 6 25 15 25 32 0 95 49 95 74 0 21 58 48 79 37 11 -6 28 -4 49 6 25 12 31
20 26 37 -3 14 2 31 15 47 11 13 20 18 21 12 0 -7 4 -13 9 -13 11 0 71 58 71
69 0 5 13 22 30 39 16 18 30 38 30 46 0 8 4 18 10 21 6 3 10 23 10 45 0 40 25
63 42 38 6 -10 12 -9 23 6 8 11 15 26 15 33 0 7 5 13 10 13 6 0 10 9 10 20 0
11 5 20 10 20 6 0 10 7 10 15 0 8 10 19 21 26 16 8 18 13 9 19 -9 6 -10 12 -1
26 6 11 11 13 11 6 0 -7 5 -10 11 -6 6 3 9 17 6 29 -3 17 2 26 20 34 13 6 28
23 33 37 6 15 21 35 35 46 13 10 30 37 36 59 8 26 18 39 29 39 23 0 90 69 90
92 0 35 22 69 42 62 13 -4 18 0 18 14 0 10 11 25 25 32 14 7 25 18 25 24 0 22
62 61 91 57 22 -2 29 2 29 16 1 38 54 73 111 73 16 0 32 6 35 14 6 16 103 40
138 34 21 -4 26 -1 26 14 0 16 6 18 43 13 23 -3 36 -3 30 1 -10 4 -9 9 2 20 8
9 20 12 25 9 6 -4 17 -1 25 5 12 10 18 10 30 0 8 -6 20 -10 27 -7 8 3 6 6 -5
6 -24 1 -11 21 13 21 13 0 17 5 14 14 -6 17 25 25 111 28 68 2 89 18 100 78 9
44 24 72 36 68 6 -2 20 -28 32 -58 l22 -55 83 0 c81 -1 83 0 77 22 -4 16 -1
23 9 23 8 0 18 -4 21 -10 9 -14 55 -13 55 1 0 7 -7 17 -16 23 -14 11 -14 13
-1 25 13 10 16 9 21 -7 8 -24 56 -26 73 -3 6 9 15 16 20 16 4 1 18 4 30 9 12
4 39 2 60 -3 20 -6 38 -9 40 -7 2 2 -2 15 -8 30 -8 17 -20 26 -36 26 -25 0
-29 10 -11 28 18 18 36 15 43 -8 7 -23 55 -28 55 -6 0 8 5 16 12 18 8 3 5 14
-10 35 -43 60 -16 73 40 20 30 -28 42 -32 83 -32 28 1 50 6 53 13 2 7 -1 12
-6 12 -14 0 -52 36 -52 49 0 6 -8 11 -18 11 -18 0 -62 42 -62 59 0 16 103 0
145 -23 32 -17 75 -14 75 5 0 9 -6 22 -14 28 -11 9 -11 17 -2 36 6 14 15 25
19 25 5 0 5 -4 2 -10 -4 -6 12 -10 39 -10 25 0 46 4 46 9 0 5 17 12 37 16 l37
7 -32 20 c-22 13 -32 28 -32 44 0 29 -26 32 -35 4 -5 -16 -12 -18 -37 -13 -29
6 -31 5 -26 -20 3 -15 1 -27 -3 -27 -13 0 -8 94 5 102 6 4 26 8 44 8 l33 0
-20 26 c-22 28 -20 44 5 44 8 0 14 5 14 11 0 7 9 9 21 6 18 -5 20 -2 14 22 -5
23 -2 29 14 34 11 2 23 2 26 -2 4 -3 17 -6 29 -6 18 -1 22 3 18 18 -6 24 13
37 54 37 24 0 31 -4 30 -17 0 -10 7 -19 17 -21 13 -3 17 4 18 30 l1 33 10 -32
c6 -18 17 -33 24 -33 16 0 19 17 3 22 -5 2 -7 11 -3 22 5 13 9 14 15 5 6 -10
11 -10 23 0 27 23 18 31 -35 31 l-52 0 29 22 c52 41 54 44 40 64 -13 17 -14
17 -20 -3 -7 -21 -49 -46 -60 -36 -12 12 -6 61 9 73 8 7 15 23 15 36 0 24 23
33 34 15 6 -9 46 -3 46 7 0 8 -34 31 -47 32 -6 0 -19 -7 -27 -16 -14 -13 -20
-14 -46 -2 -17 7 -30 18 -30 24 0 7 -10 9 -25 6 -14 -2 -25 -9 -25 -14 0 -5 9
-6 20 -3 14 5 20 2 20 -9 0 -9 -8 -16 -19 -16 -11 0 -21 -6 -24 -12 -2 -7 -8
-9 -13 -5 -5 4 -2 12 5 16 17 11 6 31 -17 31 -29 0 -72 48 -72 80 0 25 -4 29
-22 27 -17 -1 -22 3 -20 16 2 12 -4 17 -21 17 -37 0 -88 21 -81 32 5 7 -3 9
-21 6 -19 -4 -33 0 -47 14 -12 12 -28 18 -39 15 -15 -4 -19 0 -19 19 0 18 -5
24 -23 24 -16 0 -28 9 -35 25 -9 20 -19 25 -47 25 -22 0 -38 6 -41 15 -5 13
-175 15 -1445 15 l-1439 0 0 -2360z m2031 2158 c-8 -89 -4 -95 75 -122 27 -9
56 -21 64 -26 13 -9 12 -11 -5 -16 -11 -3 -49 -15 -85 -27 l-65 -22 -9 -82
c-5 -46 -12 -83 -15 -83 -3 0 -17 20 -30 45 -13 25 -28 45 -32 45 -5 0 -9 6
-9 14 0 32 -27 39 -92 23 -35 -8 -71 -18 -80 -22 -27 -11 -23 17 7 45 13 12
36 40 50 60 l26 38 -22 38 c-12 22 -30 51 -41 67 -11 15 -18 31 -16 36 2 5 34
-4 71 -20 38 -16 75 -29 82 -29 7 0 28 19 47 42 58 74 72 88 79 81 4 -5 4 -43
0 -85z m-1146 -180 c4 -18 11 -37 15 -43 4 -5 24 -66 44 -135 20 -68 41 -129
46 -134 6 -6 10 -20 10 -32 0 -12 8 -31 18 -43 16 -20 27 -21 247 -24 l230 -2
-50 -37 c-27 -20 -66 -49 -85 -63 -19 -14 -75 -55 -125 -91 -138 -99 -126 -83
-104 -151 10 -32 42 -123 69 -203 65 -185 66 -190 46 -190 -9 0 -24 8 -34 18
-11 11 -39 33 -63 51 -150 109 -201 146 -223 166 -37 32 -55 35 -92 16 -20
-11 -51 -32 -68 -46 -17 -15 -71 -55 -121 -90 -49 -35 -98 -70 -107 -78 -9 -9
-26 -21 -38 -27 -25 -13 -27 -26 16 120 14 47 32 99 39 115 24 52 67 204 60
215 -4 6 -30 26 -58 45 -29 19 -79 55 -112 80 -33 25 -85 63 -115 84 -105 74
-111 71 141 71 123 0 229 4 234 8 16 12 30 48 90 232 31 96 58 181 60 188 8
23 23 12 30 -20z m2505 -178 c0 -5 -7 -10 -15 -10 -8 0 -15 5 -15 10 0 6 7 10
15 10 8 0 15 -4 15 -10z m-1035 -76 l51 -57 45 22 c24 12 60 30 79 40 19 11
38 17 42 14 8 -4 -28 -83 -41 -93 -4 -3 -13 -20 -21 -38 -13 -33 -13 -33 46
-93 70 -71 66 -86 -19 -64 -97 25 -100 24 -138 -55 -18 -38 -39 -70 -45 -70
-8 0 -15 20 -19 48 -3 26 -9 63 -13 82 l-7 35 -83 14 c-107 18 -105 27 21 81
l48 21 -6 67 c-4 37 -9 75 -11 85 -10 33 19 17 71 -39z m550 -404 c8 -13 -15
-13 -35 0 -12 8 -11 10 7 10 12 0 25 -4 28 -10z m95 6 c0 -11 -19 -15 -25 -6
-3 5 1 10 9 10 9 0 16 -2 16 -4z m-215 -126 c3 -5 2 -10 -4 -10 -5 0 -13 5
-16 10 -3 6 -2 10 4 10 5 0 13 -4 16 -10z m-1705 -1010 c0 -5 -5 -10 -11 -10
-5 0 -7 5 -4 10 3 6 8 10 11 10 2 0 4 -4 4 -10z m-160 -248 c0 -10 -11 -28
-25 -40 -29 -26 -31 -22 -9 24 18 37 34 45 34 16z m-117 -1094 c31 -15 33 -25
9 -56 -24 -31 -63 -25 -75 13 -8 23 -6 31 9 42 22 16 23 16 57 1z m-14 -173
c12 -12 12 -17 -3 -39 -21 -32 -70 -36 -86 -7 -14 27 -13 58 3 64 18 8 70 -3
86 -18z m-75 -217 c9 -37 7 -47 -14 -58 -43 -23 -95 13 -83 58 4 18 13 22 48
22 36 0 44 -4 49 -22z m-40 -147 c28 -31 11 -51 -45 -51 -47 0 -49 1 -49 28 0
16 3 32 7 35 14 14 70 6 87 -12z m-63 -141 c11 -6 19 -21 19 -35 0 -21 -5 -25
-28 -25 -29 0 -72 24 -72 41 0 9 34 27 53 28 5 1 17 -4 28 -9z m-51 -250 c31
-24 21 -34 -39 -37 -60 -4 -85 16 -49 41 30 21 57 20 88 -4z m-460 -20 c0 -5
-9 -10 -19 -10 -11 0 -23 5 -26 10 -4 6 5 10 19 10 14 0 26 -4 26 -10z m47 4
c-3 -3 -12 -4 -19 -1 -8 3 -5 6 6 6 11 1 17 -2 13 -5z m138 -4 c-8 -13 -45
-13 -65 0 -11 7 -3 10 28 10 26 0 41 -4 37 -10z"/>
<path d="M3320 5754 c0 -8 5 -12 10 -9 6 4 8 11 5 16 -9 14 -15 11 -15 -7z"/>
<path d="M3360 5690 c0 -5 5 -10 11 -10 5 0 7 5 4 10 -3 6 -8 10 -11 10 -2 0
-4 -4 -4 -10z"/>
<path d="M3680 5506 c0 -8 -11 -23 -25 -34 -14 -11 -25 -27 -25 -36 0 -22 15
-20 32 5 13 20 15 21 31 5 15 -15 18 -16 23 -2 3 8 3 19 0 25 -3 5 3 7 14 4
13 -3 20 0 20 8 0 11 2 11 10 -1 9 -13 13 -11 30 10 11 15 15 27 8 29 -6 2
-13 -1 -17 -6 -8 -12 -49 -14 -56 -2 -10 14 -45 11 -45 -5z"/>
<path d="M4121 5504 c0 -11 3 -14 6 -6 3 7 2 16 -1 19 -3 4 -6 -2 -5 -13z"/>
<path d="M3615 5499 c-4 -6 -5 -13 -2 -16 7 -7 27 6 27 18 0 12 -17 12 -25 -2z"/>
<path d="M3930 5476 c0 -9 7 -16 16 -16 17 0 14 22 -4 28 -7 2 -12 -3 -12 -12z"/>
<path d="M3965 5440 c-3 -5 -1 -10 4 -10 6 0 11 5 11 10 0 6 -2 10 -4 10 -3 0
-8 -4 -11 -10z"/>
<path d="M4650 5428 c-21 -52 -54 -70 -92 -53 -26 11 -48 -1 -48 -27 0 -13 -9
-37 -20 -55 -14 -24 -17 -39 -10 -62 4 -16 6 -32 2 -35 -3 -3 3 -15 12 -25 10
-11 16 -28 14 -39 -2 -11 5 -28 14 -38 17 -19 18 -22 18 -49 0 -16 49 -45 78
-45 16 0 20 -7 20 -42 1 -52 -18 -82 -46 -73 -12 3 -39 -3 -64 -15 -24 -11
-65 -22 -92 -24 -31 -2 -55 -11 -70 -25 -12 -12 -33 -21 -47 -21 -39 0 -92
-37 -86 -60 3 -11 1 -20 -4 -20 -5 0 -9 -6 -9 -14 0 -10 14 -16 43 -18 59 -4
55 -27 -8 -44 -71 -20 -142 -34 -203 -41 -46 -5 -52 -3 -46 11 3 9 17 16 31
16 14 0 22 4 18 10 -8 14 -73 10 -105 -6 -14 -6 -43 -16 -64 -20 -33 -8 -41
-14 -48 -41 -9 -35 -76 -83 -88 -63 -9 15 -109 52 -121 45 -5 -4 -14 5 -21 19
-6 14 -14 26 -18 26 -4 0 -10 8 -13 19 -4 17 -13 18 -90 15 -47 -1 -100 1
-116 6 -17 5 -33 5 -36 1 -2 -5 -18 -11 -34 -14 -34 -7 -81 -47 -81 -70 0 -11
14 -18 47 -23 26 -4 61 -13 77 -19 22 -9 35 -10 47 -2 13 8 21 6 34 -6 21 -22
31 -21 62 3 32 25 50 25 106 1 24 -11 60 -19 80 -18 20 0 40 -2 43 -6 4 -4 -2
-26 -14 -50 -13 -26 -18 -52 -15 -69 3 -17 1 -28 -6 -28 -6 0 -13 12 -16 28
-4 15 -10 34 -14 42 -11 19 -78 20 -108 2 -21 -13 -21 -14 -3 -45 26 -43 77
-95 136 -136 39 -28 57 -35 96 -34 29 0 52 -5 59 -13 14 -17 3 -64 -15 -64 -7
0 -19 -6 -25 -14 -13 -15 -102 -12 -159 6 -27 8 -37 7 -51 -6 -10 -9 -25 -16
-34 -16 -29 0 -57 -37 -57 -75 0 -19 -4 -35 -8 -35 -5 0 -30 -14 -56 -31 -43
-29 -49 -30 -77 -18 -29 11 -33 11 -50 -12 -16 -21 -18 -22 -24 -6 -5 11 3 29
24 52 17 20 31 45 31 56 0 11 7 22 15 25 19 8 20 33 1 40 -8 3 -12 13 -9 23 4
15 -4 19 -39 24 -25 3 -53 4 -65 1 -13 -4 -22 0 -26 10 -5 11 6 21 40 36 26
11 57 23 70 26 13 4 26 10 29 15 3 5 21 9 40 9 63 0 66 71 4 85 -16 4 -30 11
-30 16 0 4 -13 15 -30 24 -17 9 -30 11 -30 5 0 -5 7 -10 15 -10 9 0 15 -9 15
-25 0 -22 -3 -24 -32 -18 -18 3 -56 16 -84 29 -28 13 -57 24 -65 24 -8 0 -19
4 -24 9 -10 9 -38 14 -62 12 -15 -1 -18 -31 -3 -31 6 0 10 -7 10 -15 0 -12
-11 -15 -54 -13 -39 3 -52 0 -49 -9 3 -7 -6 -15 -21 -19 -14 -3 -28 -15 -31
-25 -12 -35 -13 -89 -3 -95 5 -3 8 -16 7 -27 -4 -35 22 -128 37 -134 17 -6 19
-63 2 -63 -7 -1 -1 -8 15 -16 25 -14 26 -16 13 -36 -13 -18 -13 -23 6 -49 16
-21 25 -26 34 -18 17 14 35 3 27 -17 -4 -12 -15 -15 -42 -10 -26 4 -47 0 -71
-14 -68 -37 -86 -42 -138 -41 -50 1 -52 0 -42 -19 6 -11 17 -20 24 -20 8 0 19
-7 26 -15 9 -11 34 -15 96 -15 49 0 84 -4 84 -10 0 -5 14 -10 30 -10 34 0 50
-26 55 -93 4 -45 7 -49 47 -62 l30 -11 -27 -24 c-14 -14 -30 -35 -35 -47 -6
-14 -18 -23 -32 -24 -22 0 -22 -1 -3 -9 l20 -9 -20 -1 c-19 -1 -19 -2 -3 -14
10 -7 15 -16 12 -19 -4 -3 3 -26 15 -50 11 -24 21 -50 21 -58 0 -8 5 -20 12
-27 15 -15 9 -21 -39 -37 -25 -9 -39 -20 -41 -33 -2 -11 -9 -26 -17 -32 -8 -6
-12 -17 -9 -25 3 -7 1 -16 -5 -20 -23 -13 -11 -35 19 -35 49 0 34 -18 -25 -30
-59 -12 -82 -34 -60 -57 8 -7 24 -13 38 -13 13 0 32 -9 41 -19 17 -18 16 -20
-5 -26 -26 -9 -44 -24 -51 -45 -4 -11 -12 -7 -35 17 l-31 33 -11 -28 c-7 -16
-9 -43 -6 -62 5 -28 1 -37 -27 -61 -28 -23 -39 -27 -70 -22 -44 7 -48 -4 -14
-40 14 -15 21 -29 16 -32 -5 -3 -12 1 -17 8 -9 16 -102 71 -108 65 -3 -2 -7
-26 -10 -53 -8 -63 -10 -65 -47 -61 -38 5 -58 -2 -58 -18 0 -6 -17 -29 -38
-51 -41 -45 -65 -85 -62 -106 5 -32 -1 -39 -34 -39 -47 0 -66 -9 -66 -30 0
-11 -5 -22 -11 -25 -7 -5 -5 -11 4 -18 22 -18 29 -57 10 -57 -16 0 -93 -73
-93 -88 0 -20 28 -32 77 -32 32 0 53 -4 53 -11 0 -6 9 -9 20 -6 11 3 20 1 20
-4 0 -5 -6 -9 -13 -9 -8 0 -24 -11 -37 -25 -13 -14 -31 -25 -40 -25 -32 0 -79
-31 -95 -62 -19 -39 -20 -38 11 -38 14 0 34 -5 44 -10 26 -14 18 -72 -15 -108
-15 -16 -23 -33 -19 -44 4 -13 -2 -21 -19 -27 -14 -5 -26 -13 -28 -18 -4 -9
-101 -57 -134 -67 -11 -4 -28 -18 -39 -32 -15 -22 -16 -28 -5 -35 33 -21 87 1
151 61 35 32 68 21 35 -12 -9 -8 -11 -21 -6 -33 17 -45 10 -63 -36 -89 -25
-13 -55 -28 -68 -31 -40 -11 -67 -28 -67 -42 0 -8 -10 -27 -21 -42 -31 -43
-18 -53 59 -47 37 3 71 5 76 5 4 1 6 7 3 15 -3 8 1 17 9 20 11 4 14 1 9 -13
-4 -14 0 -21 14 -26 38 -12 69 -44 64 -65 -3 -11 -9 -20 -15 -20 -5 0 -18 -15
-29 -34 -15 -26 -29 -36 -57 -41 -62 -11 -122 -43 -166 -86 -22 -23 -58 -53
-78 -66 -20 -14 -39 -31 -42 -39 -3 -8 -13 -14 -22 -14 -21 0 -77 -34 -128
-77 -22 -18 -45 -33 -52 -33 -6 0 -17 -7 -24 -15 -20 -24 -43 -19 -38 9 5 24
-17 46 -47 46 -23 0 -94 -60 -111 -92 -14 -27 -17 -28 -99 -28 -50 0 -85 -4
-85 -10 0 -5 -7 -10 -16 -10 -9 0 -32 -7 -52 -16 -68 -29 -77 -33 -109 -39
-18 -4 -34 -2 -38 4 -16 27 -119 -5 -128 -40 -3 -11 -26 -28 -50 -38 -59 -25
-76 -58 -70 -131 4 -49 11 -75 32 -118 8 -18 105 -71 142 -77 17 -3 42 -13 56
-22 14 -10 51 -21 82 -25 58 -8 323 -25 446 -29 136 -3 429 -29 438 -38 5 -5
12 -24 16 -43 11 -51 25 -39 32 27 8 68 24 137 41 169 19 36 40 47 84 41 34
-5 45 -2 68 20 22 20 37 25 82 25 29 0 54 -4 54 -10 0 -5 19 -10 41 -10 44 0
106 -28 151 -68 18 -17 40 -25 70 -26 51 -2 108 -45 108 -82 0 -17 9 -26 36
-36 30 -10 34 -16 29 -35 -4 -19 5 -33 49 -73 45 -42 55 -58 61 -95 l6 -45
1540 0 1539 0 0 960 c0 847 -2 960 -15 960 -8 0 -15 5 -15 10 0 6 -8 10 -18
10 -10 0 -26 6 -36 13 -16 12 -16 14 -2 26 15 12 15 15 -1 27 -16 12 -16 15
-3 24 8 5 32 10 53 10 l37 0 0 145 c0 86 -4 151 -10 158 -6 7 -16 20 -23 30
-17 24 -90 34 -122 17 -19 -10 -30 -10 -54 0 -16 6 -34 9 -39 6 -6 -3 -18 -3
-27 0 -20 8 -12 51 13 70 14 10 10 13 -29 19 -25 4 -54 6 -65 5 -41 -5 -51 2
-87 55 l-37 55 39 0 c30 0 42 -5 55 -25 9 -14 23 -25 31 -25 8 0 15 1 15 3 0
14 -45 84 -68 106 -35 34 -47 61 -27 61 7 0 17 -4 20 -10 12 -20 20 -9 20 29
0 26 -9 50 -28 74 -32 43 -36 77 -7 77 16 0 13 5 -15 34 -19 18 -35 38 -35 43
0 6 -7 16 -15 23 -13 10 -22 60 -12 60 10 0 67 -32 72 -41 8 -12 65 -12 65 1
0 5 -11 26 -26 47 -17 25 -23 45 -19 61 3 12 -2 39 -11 60 -47 110 -46 99 -16
118 15 9 35 25 45 35 10 11 32 19 50 19 45 0 62 13 49 37 -9 16 -6 22 18 36
16 10 31 25 35 35 3 9 31 34 63 56 66 43 102 90 102 130 0 15 10 36 23 49 13
12 26 30 30 40 3 9 11 17 17 17 6 0 10 61 10 175 l0 174 -82 -4 c-46 -2 -95
-4 -110 -4 -15 -1 -33 -7 -40 -14 -7 -8 -38 -17 -68 -21 -65 -8 -177 -34 -205
-46 -29 -13 -131 -7 -128 8 2 7 -2 11 -9 9 -6 -1 -16 12 -21 28 -5 17 -13 39
-17 50 -22 62 -26 86 -25 138 l2 57 -58 42 c-55 41 -79 72 -79 103 0 19 -31
35 -68 35 -23 0 -28 4 -28 22 1 19 -7 24 -49 33 -30 7 -45 14 -37 19 15 9 16
60 2 87 -17 30 -89 71 -131 73 -21 1 -41 5 -45 8 -3 4 -21 4 -40 1 -29 -5 -40
-1 -63 21 -16 15 -35 27 -42 26 -41 -6 -50 15 -27 65 11 24 25 30 57 25 9 -1
12 5 8 19 -3 12 1 34 8 49 23 48 18 383 -6 398 -5 3 -9 22 -9 42 0 46 -10 82
-21 82 -5 0 -14 -10 -19 -22z m-5 -67 c3 -5 1 -12 -5 -16 -5 -3 -10 1 -10 9 0
18 6 21 15 7z m-99 -145 c18 -14 18 -15 2 -21 -24 -9 -48 1 -48 20 0 19 20 19
46 1z m-183 -523 c-7 -2 -21 -2 -30 0 -10 3 -4 5 12 5 17 0 24 -2 18 -5z m21
-89 c27 -10 20 -59 -9 -72 -38 -17 -55 -15 -55 8 0 11 5 20 10 20 6 0 16 11
22 25 13 28 11 27 32 19z m-221 -20 c11 -11 -3 -24 -18 -18 -8 4 -12 10 -9 15
6 11 18 12 27 3z m-308 -94 c18 -8 17 -9 -7 -9 -16 -1 -28 4 -28 9 0 12 8 12
35 0z m335 -102 c0 -25 -56 -97 -79 -103 l-26 -7 25 -18 c30 -23 24 -30 -29
-37 -27 -4 -42 -12 -46 -24 -7 -20 -66 -33 -124 -27 -43 4 -55 28 -14 28 19 0
38 9 53 25 14 15 35 25 51 25 14 0 32 7 39 15 7 8 18 15 24 15 6 0 22 16 36
36 14 19 31 41 38 49 6 7 12 17 12 22 0 5 9 9 20 10 11 1 20 -3 20 -9z m-373
-114 c-3 -3 -12 -4 -19 -1 -8 3 -5 6 6 6 11 1 17 -2 13 -5z m-617 -484 c0 -5
-5 -10 -11 -10 -5 0 -7 5 -4 10 3 6 8 10 11 10 2 0 4 -4 4 -10z m280 -57 c0
-5 -5 -15 -10 -23 -8 -12 -10 -11 -10 8 0 12 5 22 10 22 6 0 10 -3 10 -7z
m-36 -48 c-4 -8 -15 -15 -25 -15 -12 0 -16 5 -13 15 4 8 15 15 25 15 12 0 16
-5 13 -15z m-130 -40 c4 -11 20 -15 56 -15 44 0 51 -3 48 -17 -3 -15 -12 -17
-47 -15 -106 8 -109 10 -89 41 15 25 24 26 32 6z m-984 -1621 c0 -8 -5 -12
-10 -9 -6 4 -8 11 -5 16 9 14 15 11 15 -7z m-27 -31 c-7 -2 -19 -2 -25 0 -7 3
-2 5 12 5 14 0 19 -2 13 -5z m-113 -517 c-1 -5 4 -13 12 -17 9 -6 8 -9 -7 -9
-14 0 -21 7 -22 21 -1 11 3 19 8 17 6 -2 10 -7 9 -12z m-170 -414 c0 -8 -55
-62 -64 -62 -12 0 -6 18 15 44 19 24 49 36 49 18z m-472 -227 c-16 -13 -28
-28 -28 -33 0 -5 -11 -12 -25 -14 -14 -3 -25 -4 -25 -2 0 10 36 44 46 44 7 0
14 7 18 15 3 8 13 15 23 15 15 -1 13 -5 -9 -25z m480 -492 c-10 -2 -26 -2 -35
0 -10 3 -2 5 17 5 19 0 27 -2 18 -5z"/>
<path d="M3917 5424 c-10 -11 -9 -44 2 -44 15 0 19 13 12 33 -4 10 -10 15 -14
11z"/>
<path d="M4450 5326 c0 -14 5 -26 10 -26 6 0 10 9 10 19 0 11 -4 23 -10 26 -6
4 -10 -5 -10 -19z"/>
<path d="M3728 5293 c7 -3 16 -2 19 1 4 3 -2 6 -13 5 -11 0 -14 -3 -6 -6z"/>
<path d="M3390 5224 c0 -14 4 -23 10 -19 6 3 10 15 10 26 0 10 -4 19 -10 19
-5 0 -10 -12 -10 -26z"/>
<path d="M4747 5074 c-8 -8 1 -24 14 -24 5 0 9 7 9 15 0 15 -12 20 -23 9z"/>
<path d="M3372 5020 c0 -14 2 -19 5 -12 2 6 2 18 0 25 -3 6 -5 1 -5 -13z"/>
<path d="M3280 5001 c0 -6 5 -13 10 -16 6 -3 10 1 10 9 0 9 -4 16 -10 16 -5 0
-10 -4 -10 -9z"/>
<path d="M3485 5000 c-4 -6 -3 -16 3 -22 6 -6 12 -6 17 2 4 6 3 16 -3 22 -6 6
-12 6 -17 -2z"/>
<path d="M3400 4980 c0 -8 5 -22 10 -30 9 -13 10 -13 10 0 0 8 -5 22 -10 30
-9 13 -10 13 -10 0z"/>
<path d="M3424 4919 c-10 -17 13 -36 27 -22 12 12 4 33 -11 33 -5 0 -12 -5
-16 -11z"/>
<path d="M5925 4890 c-4 -6 5 -10 19 -10 14 0 26 5 26 10 0 6 -9 10 -19 10
-11 0 -23 -4 -26 -10z"/>
<path d="M3017 4854 c-9 -9 9 -41 28 -48 8 -3 25 -2 37 3 l23 8 -22 7 c-12 4
-24 13 -27 21 -5 15 -28 20 -39 9z"/>
<path d="M3155 4840 c3 -5 10 -10 16 -10 5 0 9 5 9 10 0 6 -7 10 -16 10 -8 0
-12 -4 -9 -10z"/>
<path d="M4105 4671 c-6 -11 9 -23 19 -14 9 9 7 23 -3 23 -6 0 -12 -4 -16 -9z"/>
<path d="M3500 4280 c0 -5 12 -10 28 -9 24 0 25 1 7 9 -27 12 -35 12 -35 0z"/>
<path d="M3670 4160 c0 -5 5 -10 11 -10 5 0 7 5 4 10 -3 6 -8 10 -11 10 -2 0
-4 -4 -4 -10z"/>
<path d="M5425 4072 c-13 -14 -2 -22 31 -22 24 0 34 4 32 13 -5 12 -53 19 -63
9z"/>
<path d="M1200 3965 c0 -8 5 -15 10 -15 6 0 10 7 10 15 0 8 -4 15 -10 15 -5 0
-10 -7 -10 -15z"/>
<path d="M2745 3370 c3 -5 8 -10 11 -10 2 0 4 5 4 10 0 6 -5 10 -11 10 -5 0
-7 -4 -4 -10z"/>
<path d="M3010 3359 c0 -5 5 -7 10 -4 6 3 10 8 10 11 0 2 -4 4 -10 4 -5 0 -10
-5 -10 -11z"/>
<path d="M2770 3340 c0 -18 80 -90 100 -90 21 0 21 1 -4 31 -14 17 -26 34 -26
37 0 7 -48 32 -62 32 -4 0 -8 -4 -8 -10z"/>
<path d="M2301 3236 c-17 -31 1 -65 66 -132 50 -50 97 -74 149 -74 17 0 36 6
43 13 11 10 14 10 18 0 5 -14 43 -18 43 -6 0 4 -16 22 -36 39 -30 27 -45 33
-110 39 -73 7 -88 17 -63 42 7 7 -3 24 -35 57 -25 25 -50 46 -54 46 -5 0 -14
-11 -21 -24z"/>
<path d="M2880 3041 c0 -15 6 -21 21 -21 25 0 22 33 -4 38 -12 2 -17 -3 -17
-17z"/>
<path d="M2703 3029 c-1 -12 3 -19 10 -16 17 5 21 37 5 37 -8 0 -14 -9 -15
-21z"/>
<path d="M603 1284 c-6 -16 -68 -19 -107 -4 -15 5 -46 7 -71 3 -34 -4 -45 -10
-45 -24 0 -10 -4 -21 -10 -24 -5 -3 -10 1 -10 9 0 9 -7 16 -16 16 -12 0 -14
-7 -9 -28 4 -20 2 -29 -7 -29 -7 0 -26 -3 -41 -7 -20 -5 -29 -2 -33 9 -4 10
-20 15 -54 15 -56 0 -108 -24 -120 -54 -4 -12 -15 -27 -23 -34 -27 -22 -40 10
-32 78 6 51 5 60 -9 60 -13 0 -16 -14 -16 -84 0 -58 4 -86 13 -89 9 -4 9 -6 0
-6 -9 -1 -13 -18 -13 -51 0 -48 1 -50 28 -50 15 0 38 -3 50 -7 33 -8 8 -23
-40 -23 l-38 0 0 -69 0 -69 156 5 c145 6 158 5 170 -12 23 -31 17 -38 -28 -30
-53 9 -77 10 -200 7 l-98 -2 0 -120 0 -120 34 0 c19 0 47 -5 63 -11 26 -10 27
-12 8 -19 -11 -5 -39 -9 -62 -9 l-43 -1 0 -80 c0 -79 0 -80 25 -80 31 0 33
-17 2 -22 -22 -3 -22 -6 -25 -165 l-2 -163 205 0 206 0 -7 23 c-3 12 -15 30
-24 39 -24 22 -35 75 -20 93 6 7 33 19 61 26 54 14 58 20 29 47 -10 10 -29 39
-40 64 -11 26 -25 50 -30 53 -16 10 -11 54 8 64 17 8 89 25 165 36 28 5 37 11
37 26 0 12 -10 23 -25 29 -26 10 -46 45 -38 67 3 8 25 13 60 13 55 0 112 19
133 45 19 23 18 49 -1 63 -10 7 -16 19 -12 27 3 9 1 21 -5 28 -15 18 7 82 32
93 13 5 21 19 22 34 1 14 3 32 5 40 3 11 -7 16 -41 20 -31 3 -44 9 -42 19 6
31 -9 51 -40 51 -23 0 -29 4 -24 15 4 11 -2 15 -27 15 -26 0 -36 6 -50 30 -10
17 -24 30 -31 30 -8 0 -16 9 -19 20 -3 11 -17 24 -31 30 -39 15 -33 34 9 27
19 -3 37 -1 40 4 4 5 18 9 33 9 38 0 129 49 136 74 6 24 6 24 -33 36 -25 7
-33 6 -38 -6z m-343 -734 c11 -11 17 -26 14 -35 -8 -19 -63 -20 -89 -2 -17 13
-17 15 3 35 27 27 46 28 72 2z m-59 -187 c34 -20 37 -38 8 -53 -34 -19 -98 3
-99 32 0 6 47 36 58 38 2 0 17 -8 33 -17z m-66 -269 c9 -9 15 -28 13 -43 -2
-22 -9 -27 -37 -29 -40 -4 -81 15 -81 36 0 45 72 69 105 36z"/>
<path d="M1144 1172 c-10 -10 -36 -26 -58 -33 -35 -13 -36 -14 -15 -20 31 -9
154 -10 200 -3 l35 6 -28 30 c-37 40 -105 50 -134 20z"/>
<path d="M698 1003 c7 -3 16 -2 19 1 4 3 -2 6 -13 5 -11 0 -14 -3 -6 -6z"/>
<path d="M1115 867 c-56 -22 -75 -37 -68 -53 11 -30 134 12 141 49 4 20 -27
22 -73 4z"/>
</g>
</svg>
